# AST/ASF file generated using VICON BodyLanguage
# -----------------------------------------------
:version 1.10
:name VICON
:units
  mass 1.0
  length 0.45
  angle deg
:documentation
   .ast/.asf automatically generated from VICON data using
   VICON BodyBuilder and BodyLanguage model FoxedUp or BRILLIANT.MOD
:root
   order TX TY TZ RX RY RZ
   axis XYZ
   position 0 0 0  
   orientation 0 0 0 
:bonedata
  begin
     id 1 
     name lhipjoint
     direction 0.645893 -0.654526 0.392961 
     length 2.38111 
     axis 0 0 0  XYZ
  end
  begin
     id 2 
     name lfemur
     direction 0.34202 -0.939693 0  
     length 6.6822  
     axis 0 0 20  XYZ
    dof rx ry rz
    limits (-160.0 20.0)
           (-70.0 70.0)
           (-60.0 70.0)
  end
  begin
     id 3 
     name ltibia
     direction 0.34202 -0.939693 0   
     length 6.93904   
     axis 0 0 20   XYZ
    dof rx
    limits (-10.0 170.0)
  end
  begin
     id 4 
     name lfoot
     direction 0.0694967 -0.190941 0.979138   
     length 2.13616   
     axis -90 7.62852e-016 20   XYZ
    dof rx rz
    limits (-45.0 90.0)
           (-70.0 20.0)
  end
  begin
     id 5 
     name ltoes
     direction 1.535e-011 -4.2202e-011 1   
     length 1.07536   
     axis -90 7.62852e-016 20   XYZ
    dof rx
    limits (-90.0 20.0)
  end
  begin
     id 6 
     name rhipjoint
     direction -0.700219 -0.612087 0.367481   
     length 2.54621  
     axis 0 0 0  XYZ 
  end
  begin
     id 7 
     name rfemur
     direction -0.34202 -0.939693 0   
     length 6.55353   
     axis 0 0 -20   XYZ
    dof rx ry rz
    limits (-160.0 20.0)
           (-70.0 70.0)
           (-70.0 60.0)
  end
  begin
     id 8 
     name rtibia
     direction -0.34202 -0.939693 0   
     length 6.8736   
     axis 0 0 -20   XYZ
    dof rx
    limits (-10.0 170.0)
 end
 begin
     id 9 
     name rfoot
     direction -0.0679995 -0.186827 0.980037   
     length 2.1218  
     axis -90 -7.62852e-016 -20   XYZ
    dof rx rz
    limits (-45.0 90.0)
           (-20.0 70.0)
  end
  begin
     id 10 
     name rtoes
     direction -1.53589e-011 -4.21772e-011 1   
     length 1.06864   
     axis -90 -7.62852e-016 -20   XYZ
    dof rx
    limits (-90.0 20.0)
  end
  begin
     id 11 
     name lowerback
     direction -0.0416607 0.996347 -0.0745409   
     length 2.12205   
     axis 0 0 0   XYZ
    dof rx ry rz
    limits (-20.0 45.0)
           (-30.0 30.0)
           (-30.0 30.0)
  end
  begin
     id 12 
     name upperback
     direction -0.000153993 0.999276 -0.0380568   
     length 2.12759   
     axis 0 0 0   XYZ
    dof rx ry rz
    limits (-20.0 45.0)
           (-30.0 30.0)
           (-30.0 30.0)
  end
  begin
     id 13 
     name thorax
     direction 0.0187671 0.999821 -0.00241421   
     length 2.13704   
     axis 0 0 0   XYZ
    dof rx ry rz
    limits (-20.0 45.0)
           (-30.0 30.0)
           (-30.0 30.0)
  end
  begin
     id 14 
     name lowerneck
     direction 0.0268157 0.964865 0.261374   
     length 1.65253   
     axis 0 0 0   XYZ
    dof rx ry rz
    limits (-20.0 45.0)
           (-30.0 30.0)
           (-30.0 30.0)
  end
  begin
     id 15 
     name upperneck
     direction 0.00263774 0.939908 -0.341418   
     length 1.72375   
     axis 0 0 0   XYZ
    dof rx ry rz
    limits (-20.0 45.0)
           (-30.0 30.0)
           (-30.0 30.0)
  end
  begin
     id 16
     name head
     direction -0.00526001 0.989001 -0.147818  
     length 1.74878  
     axis 0 0 0   XYZ
    dof rx ry rz
    limits (-20.0 45.0)
           (-30.0 30.0)
           (-30.0 30.0)
  end
  begin
     id 17 
     name lclavicle
     direction 0.881214 0.461162 -0.103884  
     length 3.25108  
     axis 0 0 0   XYZ
    dof ry rz
    limits (-20.0 10.0)
           (0.0 20.0)
  end
  begin
     id 18 
     name lhumerus
     direction 1 -4.4899e-011 3.38092e-027   
     length 4.87408   
     axis 180 -30 -90   XYZ
    dof rx ry rz
    limits (-60.0 90.0)
           (-90.0 90.0)
           (-90.0 90.0)
  end
  begin
     id 19
     name lradius
     direction 1 -4.48931e-011 9.96288e-027   
     length 2.76729   
     axis 180 -30 -90   XYZ
    dof rx
    limits (-10.0 170.0)
  end
  begin
     id 20
     name lwrist
     direction 1 -4.4896e-011 1.50617e-026   
     length 1.38364   
     axis -9.31234e-015 90 90   XYZ
    dof ry
    limits (-180.0 0.0)
 end
  begin
     id 21 
     name lhand
     direction 1 -4.49038e-011 3.01286e-026   
     length 0.98922   
     axis -1.92217e-014 90 90   XYZ
    dof rx rz
    limits (-90.0 90.0)
           (-45.0 45.0)
  end
  begin
     id 22 
     name lfingers
     direction 1 -4.49051e-011 6.02588e-026   
     length 0.797535   
     axis -3.84436e-014 90 90   XYZ
    dof rx
    limits (0.0 90.0)
  end
  begin
     id 23
     name lthumb
     direction 0.707107 -6.34901e-011 0.707107   
     length 1.14511   
     axis -90 45 2.19363e-014   XYZ
    dof rx rz
    limits (-45.0 45.0)
           (-45.0 45.0)
  end
  begin
     id 24 
     name rclavicle
     direction -0.893894 0.441652 -0.0767889   
     length 3.29361  
     axis 0 0 0   XYZ 
    dof ry rz
    limits (-10.0 20.0)
           (-20.0 0.0)
  end
  begin
     id 25 
     name rhumerus
     direction -1 -4.48945e-011 8.0491e-028  
     length 4.71404   
     axis 180 30 90   XYZ
    dof rx ry rz
    limits (-90.0 60.0)
           (-90.0 90.0)
           (-90.0 90.0)
  end
  begin
     id 26 
     name rradius
     direction -1 -4.48986e-011 9.27795e-027   
     length 2.83468   
     axis 180 30 90   XYZ
    dof rx
    limits (-10.0 170.0)
  end
  begin
     id 27 
     name rwrist
     direction -1 -4.49029e-011 1.5064e-026   
     length 1.41734   
     axis -9.31234e-015 -90 -90   XYZ
    dof ry
    limits (-180.0 0.0)
  end
  begin
     id 28
     name rhand
     direction -1 -4.48857e-011 3.01165e-026   
     length 0.868195   
     axis -1.92217e-014 -90 -90   XYZ
    dof rx rz
    limits (-90.0 90.0)
           (-45.0 45.0)
  end
  begin
     id 29
     name rfingers
     direction -1 -4.49048e-011 6.02585e-026   
     length 0.699961   
     axis -3.84436e-014 -90 -90   XYZ
    dof rx
    limits (0.0 90.0)
  end
  begin
     id 30
     name rthumb
     direction -0.707107 -6.34854e-011 0.707107   
     length 1.00501   
     axis -90 -45 -2.19363e-014   XYZ
    dof rx rz
    limits (-45.0 45.0)
           (-45.0 45.0)
  end
:hierarchy
  begin
    root lhipjoint rhipjoint lowerback
    lhipjoint lfemur
    lfemur ltibia
    ltibia lfoot
    lfoot ltoes
    rhipjoint rfemur
    rfemur rtibia
    rtibia rfoot
    rfoot rtoes
    lowerback upperback
    upperback thorax
    thorax lowerneck lclavicle rclavicle
    lowerneck upperneck
    upperneck head
    lclavicle lhumerus
    lhumerus lradius
    lradius lwrist
    lwrist lhand lthumb
    lhand lfingers
    rclavicle rhumerus
    rhumerus rradius
    rradius rwrist
    rwrist rhand rthumb
    rhand rfingers
  end

#!OML:ASF H:\ManfredObstacles\Project 1\Capture day 2\Session 1\male.ASF
:FULLY-SPECIFIED
:DEGREES
99
root 2.00811 17.3188 9.06676 -170.16 -21.6933 180.101
lowerback 11.7724 -5.94106 -5.29524
upperback 2.74766 -8.70669 0.711082
thorax -2.76451 -4.39863 4.83696
lowerneck -37.7468 -0.270227 -0.947112
upperneck 41.5694 -6.09157 5.29386
head 26.6437 -2.26363 0.998106
rclavicle 2.50469e-014 1.59028e-014
rhumerus -41.4274 -4.43818 -36.4625
rradius 53.0124
rwrist 5.81916
rhand -16.982 -10.2274
rfingers 7.12502
rthumb 9.25275 -40.0044
lclavicle 2.50469e-014 1.59028e-014
lhumerus 5.29152 -26.4674 36.9636
lradius 79.9964
lwrist -18.9566
lhand -19.3888 6.99884
lfingers 7.12502
lthumb 6.92985 36.8654
rfemur -94.0279 -20.0276 -8.85622
rtibia 123.132
rfoot -22.9214 -16.8667
rtoes -0.623063
lfemur 10.5321 -5.71167 -15.2191
ltibia 1.90833e-014
lfoot 32.9561 1.82086
ltoes -12.2054
100
root 2.01185 17.5617 8.72759 -169.474 -21.713 179.98
lowerback 10.7511 -6.36379 -5.29556
upperback 2.4288 -9.17435 0.934445
thorax -2.44863 -4.62243 4.99841
lowerneck -37.5456 0.323499 -0.356093
upperneck 41.8659 -5.26535 4.61474
head 26.7034 -2.00404 0.73844
rclavicle 1.06549e-013 0
rhumerus -41.2645 -3.35789 -34.3686
rradius 53.2395
rwrist 5.84003
rhand -16.6965 -9.78569
rfingers 7.12502
rthumb 9.52819 -39.5503
lclavicle 1.06549e-013 0
lhumerus 5.24961 -26.0294 35.131
lradius 80.5362
lwrist -18.8381
lhand -19.1482 6.72143
lfingers 7.12502
lthumb 7.16208 36.5802
rfemur -94.5092 -17.6022 -9.20057
rtibia 119.83
rfoot -21.0277 -17.8335
rtoes -0.877158
lfemur 10.3303 -4.56895 -14.7498
ltibia 6.36111e-015
lfoot 36.492 5.99166
ltoes -6.00665
101
root 2.01781 17.8071 8.3902 -168.773 -21.9248 179.911
lowerback 9.68299 -6.81789 -5.20807
upperback 2.13748 -9.6787 1.18284
thorax -2.07861 -4.87017 5.11821
lowerneck -37.246 -1.89388 2.2725
upperneck 42.4279 -2.90812 2.32995
head 26.7451 0.706359 0.505285
rclavicle 7.41467e-014 6.36111e-015
rhumerus -41.1379 -2.28347 -32.3928
rradius 53.4978
rwrist 5.91161
rhand -16.2937 -9.33815
rfingers 7.12502
rthumb 9.91685 -39.0846
lclavicle 7.41467e-014 6.36111e-015
lhumerus 5.20288 -25.6249 33.3794
lradius 81.0742
lwrist -18.7275
lhand -18.8655 6.41217
lfingers 7.12502
lthumb 7.43496 36.2615
rfemur -94.6242 -15.6639 -9.42979
rtibia 116.39
rfoot -18.906 -18.5677
rtoes -1.41253
lfemur 10.1453 -3.59465 -14.2319
ltibia -9.54166e-015
lfoot 38.7267 12.5122
ltoes 2.3711
102
root 2.02658 18.0531 8.05782 -168.085 -22.3558 179.835
lowerback 8.63742 -7.29911 -5.076
upperback 1.89503 -10.227 1.4393
thorax -1.66694 -5.14578 5.20868
lowerneck -37.0009 -1.49103 2.80933
upperneck 42.6443 -2.20117 1.73028
head 26.8367 0.971479 0.276787
rclavicle 9.16397e-014 1.19271e-014
rhumerus -41.0756 -1.29296 -30.5193
rradius 53.7967
rwrist 6.01424
rhand -15.7901 -8.90727
rfingers 7.12502
rthumb 10.4027 -38.6299
lclavicle 9.16397e-014 1.19271e-014
lhumerus 5.24806 -25.2495 31.6999
lradius 81.5627
lwrist -18.6639
lhand -18.6311 6.1239
lfingers 7.12502
lthumb 7.66125 35.9651
rfemur -94.3483 -14.1962 -9.58691
rtibia 112.811
rfoot -16.5491 -19.1023
rtoes -1.99883
lfemur 10.0291 -2.827 -13.7323
ltibia 9.54166e-015
lfoot 39.5707 18.7097
ltoes 9.52375
103
root 2.03898 18.297 7.73215 -167.453 -22.9878 179.684
lowerback 7.71543 -7.7881 -4.96739
upperback 1.70248 -10.8056 1.67181
thorax -1.26493 -5.43998 5.28711
lowerneck -36.703 -1.18134 3.2503
upperneck 42.8524 -1.61357 1.2348
head 26.9259 1.19936 0.0915717
rclavicle 9.38264e-014 -1.19271e-014
rhumerus -41.1479 -0.433274 -28.7368
rradius 54.1372
rwrist 6.16833
rhand -15.2234 -8.46613
rfingers 7.12502
rthumb 10.9493 -38.1606
lclavicle 9.38264e-014 -1.19271e-014
lhumerus 5.43087 -24.9357 30.0958
lradius 81.9752
lwrist -18.6366
lhand -18.4496 5.88762
lfingers 7.12502
lthumb 7.83642 35.7224
rfemur -93.6589 -13.1275 -9.7414
rtibia 109.1
rfoot -13.9549 -19.513
rtoes -2.56579
lfemur 10.05 -2.26994 -13.3196
ltibia -1.90833e-014
lfoot 40.702 21.1263
ltoes 12.1649
104
root 2.05577 18.5351 7.4144 -166.93 -23.776 179.405
lowerback 7.01334 -8.25697 -4.94993
upperback 1.56431 -11.3848 1.85309
thorax -0.91755 -5.73597 5.37728
lowerneck -36.3293 -0.969218 3.5935
upperneck 43.0444 -1.14876 0.834439
head 26.9799 1.38624 -0.0569733
rclavicle 5.86415e-014 2.06736e-014
rhumerus -41.4234 0.276046 -27.0436
rradius 54.5393
rwrist 6.3199
rhand -14.6334 -8.05284
rfingers 7.12502
rthumb 11.5183 -37.7164
lclavicle 5.86415e-014 2.06736e-014
lhumerus 5.77173 -24.7005 28.5957
lradius 82.2929
lwrist -18.6825
lhand -18.3202 5.67531
lfingers 7.12502
lthumb 7.96132 35.5054
rfemur -92.5342 -12.3639 -9.96769
rtibia 105.267
rfoot -11.1765 -19.8417
rtoes -3.13944
lfemur 10.2846 -1.90404 -13.0428
ltibia -9.54166e-015
lfoot 43.0899 19.0023
ltoes 11.2382
